<?xml version="1.0" encoding="UTF-8" standalone="no"?>
<!DOCTYPE svg PUBLIC "-//W3C//DTD SVG 1.1//EN" "http://www.w3.org/Graphics/SVG/1.1/DTD/svg11.dtd">
<!-- Created with Vectornator (http://vectornator.io/) -->
<svg height="100%" stroke-miterlimit="10" style="fill-rule:nonzero;clip-rule:evenodd;stroke-linecap:round;stroke-linejoin:round;" version="1.1" viewBox="0 0 1000 1000" width="100%" xml:space="preserve" xmlns="http://www.w3.org/2000/svg" xmlns:vectornator="http://vectornator.io" xmlns:xlink="http://www.w3.org/1999/xlink">
<defs/>
<g id="Untitled" vectornator:layerName="Untitled">
<g opacity="1">
<path d="M675.121 713.053C640.309 713.053 608.13 702.074 582.107 683.547L581.166 684.552L544.585 723.57C580.607 750.562 625.886 766.691 675.121 766.691C703.769 766.691 731.079 761.209 756.018 751.337L760.986 745.949C767.83 738.53 776.259 717.734 781.29 705.315L783.364 700.219C789.45 685.354 794.164 670.353 797.822 655.896C769.139 690.674 724.816 713.053 675.121 713.053" fill="#ffffff" fill-rule="evenodd" opacity="1" stroke="none"/>
<path d="M675.121 646.328C723.082 646.328 762.105 608.866 762.105 562.824C762.105 516.774 723.082 479.312 675.121 479.312C627.16 479.312 588.137 516.774 588.137 562.824C588.137 608.866 627.16 646.328 675.121 646.328" fill="#ffffff" fill-rule="evenodd" opacity="1" stroke="none"/>
<path d="M249.148 713.053C162.858 713.053 92.6537 645.657 92.6537 562.818C92.6537 491.706 144.408 432.021 213.643 416.538C210.529 415.539 207.372 414.472 204.209 413.317C181.994 405.233 163.544 395.089 148.881 383.084C82.1656 417.462 36.7876 485.048 36.7876 562.818C36.7876 675.415 131.86 766.691 249.148 766.691C297.605 766.691 342.247 751.079 377.986 724.847L340.392 684.756C314.689 702.536 283.182 713.053 249.148 713.053" fill="#ffffff" fill-rule="evenodd" opacity="1" stroke="none"/>
<path d="M162.162 562.821C162.162 608.864 201.185 646.325 249.146 646.325C297.114 646.325 336.137 608.864 336.137 562.821C336.137 516.772 297.114 479.317 249.146 479.317C201.185 479.317 162.162 516.772 162.162 562.821" fill="#ffffff" fill-rule="evenodd" opacity="1" stroke="none"/>
<path d="M292.722 330.463C247.833 322.392 156.588 292.519 140.488 233.5C140.488 233.5 119.108 297.017 155.343 344.968C162.816 354.867 172.823 362.959 183.609 369.542C215.42 388.946 254.046 395.142 254.803 395.169C342.587 398.287 412.756 467.586 412.756 552.619C412.756 592.859 397.009 629.547 371.157 657.395C368.977 659.739 366.748 662.049 364.427 664.264L364.752 664.61L402.275 704.64L459.747 765.935L459.747 417.969C450.887 400.455 415.969 352.618 292.722 330.463" fill="#8c52ff" fill-rule="evenodd" opacity="1" stroke="none"/>
<path d="M822.83 352.138C819.278 313.053 807.87 270.543 780.885 232.857C764.785 291.876 673.54 321.742 628.651 329.813C498.228 353.266 466.707 405.485 460.309 420.078C459.963 419.276 459.517 418.339 459 417.32L459 765.292L460.309 766.692L520.5 702.489L556.939 663.621C527.095 635.086 508.617 595.606 508.617 551.976C508.617 502.985 531.915 459.218 568.446 430.316C597.519 406.436 635.254 391.978 676.52 391.978C768.408 391.978 842.901 463.491 842.901 551.704C843.913 696.965 786.391 767.147 786.391 767.147C887.295 744.584 962.467 657.703 962.467 553.966C962.467 463.158 904.867 385.279 822.83 352.138" fill="#8c52ff" fill-rule="evenodd" opacity="1" stroke="none"/>
</g>
</g>
</svg>
