<?xml version="1.0" encoding="UTF-8" standalone="no"?>
<!DOCTYPE svg PUBLIC "-//W3C//DTD SVG 1.1//EN" "http://www.w3.org/Graphics/SVG/1.1/DTD/svg11.dtd">
<!-- Created with Vectornator (http://vectornator.io/) -->
<svg height="100%" stroke-miterlimit="10" style="fill-rule:nonzero;clip-rule:evenodd;stroke-linecap:round;stroke-linejoin:round;" version="1.1" viewBox="0 0 1536 396" width="100%" xml:space="preserve" xmlns="http://www.w3.org/2000/svg" xmlns:vectornator="http://vectornator.io" xmlns:xlink="http://www.w3.org/1999/xlink">
<defs/>
<g id="Layer-1" vectornator:layerName="Layer 1">
<g opacity="1">
<g opacity="1">
<path d="M447.1 335.717C424.597 335.717 403.797 328.62 386.977 316.645L386.368 317.294L362.722 342.516C386.007 359.964 415.275 370.389 447.1 370.389C465.618 370.389 483.272 366.846 499.392 360.465L502.604 356.982C507.028 352.186 512.476 338.743 515.728 330.715L517.068 327.422C521.003 317.814 524.051 308.116 526.414 298.772C507.874 321.251 479.224 335.717 447.1 335.717" fill="#ffffff" fill-rule="evenodd" opacity="1" stroke="none"/>
<path d="M447.1 292.586C478.102 292.586 503.328 268.371 503.328 238.609C503.328 208.843 478.102 184.628 447.1 184.628C416.099 184.628 390.874 208.843 390.874 238.609C390.874 268.371 416.099 292.586 447.1 292.586" fill="#ffffff" fill-rule="evenodd" opacity="1" stroke="none"/>
<path d="M171.269 335.717C115.492 335.717 70.1121 292.152 70.1121 238.605C70.1121 192.639 103.565 154.057 148.319 144.05C146.306 143.404 144.266 142.715 142.221 141.967C127.861 136.743 115.935 130.185 106.458 122.426C63.3321 144.648 34 188.335 34 238.605C34 311.387 95.4542 370.389 171.269 370.389C202.592 370.389 231.448 360.297 254.551 343.342L230.25 317.427C213.636 328.919 193.269 335.717 171.269 335.717" fill="#ffffff" fill-rule="evenodd" opacity="1" stroke="none"/>
<path d="M115.041 238.607C115.041 268.369 140.267 292.585 171.269 292.585C202.275 292.585 227.499 268.369 227.499 238.607C227.499 208.841 202.275 184.629 171.269 184.629C140.267 184.629 115.041 208.841 115.041 238.607" fill="#ffffff" fill-rule="evenodd" opacity="1" stroke="none"/>
<path d="M199.436 87.9932C170.419 82.7759 111.438 63.4662 101.031 25.3157C101.031 25.3157 87.2117 66.373 110.634 97.3681C115.464 103.767 121.932 108.999 128.906 113.253C149.468 125.796 174.435 129.802 174.925 129.818C231.669 131.834 277.025 176.629 277.025 231.595C277.025 257.605 266.848 281.32 250.136 299.323C248.727 300.836 247.286 302.33 245.785 303.761L245.995 303.985L270.25 329.862L307.4 369.483L307.4 144.557C301.674 133.236 279.102 102.314 199.436 87.9932M542.58 102.421C540.284 77.1575 532.91 49.6786 515.467 25.3183C505.06 63.468 446.079 82.7741 417.062 87.9913C332.757 103.151 312.382 136.905 308.246 146.338C308.022 145.82 307.734 145.215 307.4 144.555L307.4 369.484L308.246 370.391L347.154 328.888L370.707 303.765C351.415 285.319 339.471 259.8 339.471 231.597C339.471 199.929 354.532 171.638 378.145 152.956C396.939 137.519 421.331 128.174 448.004 128.174C507.402 128.174 555.553 174.401 555.553 231.422C556.207 325.318 519.025 370.684 519.025 370.684C584.25 356.099 632.841 299.939 632.841 232.883C632.841 174.186 595.609 123.844 542.58 102.421" fill="#8c52ff" fill-rule="evenodd" opacity="1" stroke="none"/>
</g>
<g opacity="1">
<path d="M784.51 136.03C776.054 133.295 765.608 131.927 753.173 131.927C740.738 131.927 730.293 133.233 721.837 135.844C713.381 138.455 705.609 143.305 698.521 150.393C691.433 157.481 686.148 167.802 682.667 181.356C679.185 194.91 677.444 212.009 677.444 232.651C677.444 253.293 679.185 270.391 682.667 283.945C686.148 297.5 691.433 307.821 698.521 314.909C705.609 321.997 713.381 326.846 721.837 329.458C730.293 332.069 740.738 333.375 753.173 333.375C765.608 333.375 776.054 332.069 784.51 329.458C792.966 326.846 800.737 321.997 807.825 314.909C814.913 307.821 820.198 297.5 823.68 283.945C827.162 270.391 828.903 253.293 828.903 232.651C828.903 212.009 827.162 194.91 823.68 181.356C820.198 167.802 814.913 157.481 807.825 150.393C800.737 143.305 792.966 138.517 784.51 136.03ZM819.95 318.08C806.52 335.737 784.261 344.566 753.173 344.566C722.086 344.566 699.827 335.737 686.397 318.08C672.967 300.422 666.252 271.945 666.252 232.651C666.252 193.356 672.967 164.88 686.397 147.222C699.827 129.564 722.086 120.735 753.173 120.735C784.261 120.735 806.52 129.564 819.95 147.222C833.379 164.88 840.094 193.356 840.094 232.651C840.094 271.945 833.379 300.422 819.95 318.08Z" fill="#8c52ff" fill-rule="evenodd" opacity="1" stroke="#8c52ff" stroke-linecap="butt" stroke-linejoin="miter" stroke-width="25"/>
<path d="M909.727 318.08C896.298 300.422 889.583 271.945 889.583 232.651C889.583 193.356 896.298 164.88 909.727 147.222C923.157 129.564 945.416 120.735 976.504 120.735C1007.59 120.735 1029.97 129.315 1043.65 146.476L1035.45 153.937C1024.5 139.264 1004.86 131.927 976.504 131.927C964.069 131.927 953.623 133.233 945.167 135.844C936.711 138.455 928.94 143.305 921.852 150.393C914.764 157.481 909.479 167.802 905.997 181.356C902.515 194.91 900.774 212.009 900.774 232.651C900.774 253.293 902.515 270.391 905.997 283.945C909.479 297.5 914.764 307.821 921.852 314.909C928.94 321.997 936.711 326.846 945.167 329.458C953.623 332.069 964.069 333.375 976.504 333.375C1004.86 333.375 1024.5 326.038 1035.45 311.365L1043.65 318.826C1029.97 335.986 1007.59 344.566 976.504 344.566C945.416 344.566 923.157 335.737 909.727 318.08Z" fill="#8c52ff" fill-rule="evenodd" opacity="1" stroke="#8c52ff" stroke-linecap="butt" stroke-linejoin="miter" stroke-width="25"/>
<path d="M1186.78 224.071L1253.93 340.836L1240.87 340.836L1180.06 235.635L1119.25 340.836L1106.2 340.836L1173.35 224.071L1115.9 124.466L1128.95 124.466L1180.06 212.879L1231.17 124.466L1244.23 124.466L1186.78 224.071Z" fill="#8c52ff" fill-rule="evenodd" opacity="1" stroke="#8c52ff" stroke-linecap="butt" stroke-linejoin="miter" stroke-width="25"/>
<path d="M1372.22 330.975L1469.98 330.778L1393.51 168.492L1312.18 340.857L1300.24 340.857L1393.51 142.62L1486.77 340.857L1372.22 341.055L1372.22 330.975Z" fill="#8c52ff" fill-rule="evenodd" opacity="1" stroke="#8c52ff" stroke-linecap="butt" stroke-linejoin="miter" stroke-width="25"/>
</g>
</g>
</g>
</svg>
