<?xml version="1.0" encoding="UTF-8" standalone="no"?>
<!DOCTYPE svg PUBLIC "-//W3C//DTD SVG 1.1//EN" "http://www.w3.org/Graphics/SVG/1.1/DTD/svg11.dtd">
<!-- Created with Vectornator (http://vectornator.io/) -->
<svg height="100%" stroke-miterlimit="10" style="fill-rule:nonzero;clip-rule:evenodd;stroke-linecap:round;stroke-linejoin:round;" version="1.1" viewBox="0 0 1000 1000" width="100%" xml:space="preserve" xmlns="http://www.w3.org/2000/svg" xmlns:vectornator="http://vectornator.io" xmlns:xlink="http://www.w3.org/1999/xlink">
<defs/>
<g id="Layer-1" vectornator:layerName="Layer 1">
<g opacity="1">
<path d="M673.894 710.663C639.471 710.663 607.654 699.807 581.924 681.489L580.993 682.482L544.822 721.064C580.441 747.754 625.211 763.701 673.894 763.701C702.22 763.701 729.225 758.281 753.884 748.52L758.797 743.192C765.564 735.856 773.898 715.292 778.873 703.012L780.922 697.975C786.942 683.277 791.604 668.443 795.219 654.149C766.858 688.535 723.033 710.663 673.894 710.663" fill="#ffffff" fill-rule="evenodd" opacity="1" stroke="none"/>
<path d="M673.894 644.687C721.317 644.687 759.905 607.645 759.905 562.119C759.905 516.586 721.317 479.545 673.894 479.545C626.472 479.545 587.886 516.586 587.886 562.119C587.886 607.645 626.472 644.687 673.894 644.687" fill="#ffffff" fill-rule="evenodd" opacity="1" stroke="none"/>
<path d="M251.96 710.663C166.639 710.663 97.2217 644.023 97.2217 562.113C97.2217 491.799 148.394 432.781 216.853 417.474C213.774 416.486 210.654 415.432 207.525 414.287C185.559 406.296 167.316 396.265 152.819 384.396C86.8505 418.388 41.9817 485.216 41.9817 562.113C41.9817 673.446 135.987 763.701 251.96 763.701C299.874 763.701 344.014 748.263 379.355 722.327L342.182 682.685C316.768 700.265 285.613 710.663 251.96 710.663" fill="#ffffff" fill-rule="evenodd" opacity="1" stroke="none"/>
<path d="M165.949 562.116C165.949 607.642 204.536 644.685 251.96 644.685C299.389 644.685 337.974 607.642 337.974 562.116C337.974 516.583 299.389 479.547 251.96 479.547C204.536 479.547 165.949 516.583 165.949 562.116" fill="#ffffff" fill-rule="evenodd" opacity="1" stroke="none"/>
<path d="M295.046 331.725C250.659 323.744 160.437 294.206 144.518 235.848C144.518 235.848 123.379 298.653 159.207 346.066C166.596 355.853 176.49 363.857 187.158 370.364C218.611 389.551 256.803 395.679 257.552 395.703C344.353 398.787 413.733 467.309 413.733 551.39C413.733 591.177 398.165 627.453 372.601 654.992C370.446 657.307 368.242 659.592 365.946 661.781L366.267 662.123L403.369 701.707L460.197 762.315L460.197 418.249C451.438 400.932 416.91 353.631 295.046 331.725M819.948 353.795C816.435 315.15 805.156 273.116 778.473 235.852C762.554 294.209 672.332 323.741 627.945 331.722C498.985 354.911 467.818 406.544 461.491 420.974C461.148 420.181 460.708 419.256 460.197 418.246L460.197 762.316L461.491 763.704L521.008 700.217L557.037 661.787C527.526 633.57 509.255 594.534 509.255 551.393C509.255 502.951 532.294 459.675 568.414 431.097C597.163 407.483 634.475 393.188 675.276 393.188C766.136 393.188 839.792 463.901 839.792 551.125C840.793 694.756 783.916 764.152 783.916 764.152C883.69 741.841 958.018 655.934 958.018 553.36C958.018 463.572 901.065 386.565 819.948 353.795" fill="#8c52ff" fill-rule="evenodd" opacity="1" stroke="none"/>
</g>
</g>
</svg>
