<?xml version="1.0" encoding="UTF-8" standalone="no"?>
<!DOCTYPE svg PUBLIC "-//W3C//DTD SVG 1.1//EN" "http://www.w3.org/Graphics/SVG/1.1/DTD/svg11.dtd">
<!-- Created with Vectornator (http://vectornator.io/) -->
<svg height="100%" stroke-miterlimit="10" style="fill-rule:nonzero;clip-rule:evenodd;stroke-linecap:round;stroke-linejoin:round;" version="1.1" viewBox="0 0 1000 1000" width="100%" xml:space="preserve" xmlns="http://www.w3.org/2000/svg" xmlns:vectornator="http://vectornator.io" xmlns:xlink="http://www.w3.org/1999/xlink">
<defs/>
<g id="Untitled" vectornator:layerName="Untitled">
<g opacity="1">
<path d="M674.321 713.053C639.509 713.053 607.33 702.074 581.307 683.547L580.366 684.552L543.785 723.57C579.807 750.562 625.086 766.691 674.321 766.691C702.969 766.691 730.279 761.209 755.218 751.337L760.186 745.949C767.03 738.53 775.459 717.734 780.49 705.315L782.564 700.219C788.65 685.354 793.364 670.353 797.022 655.896C768.339 690.674 724.016 713.053 674.321 713.053" fill="#ffffff" fill-rule="evenodd" opacity="1" stroke="none"/>
<path d="M674.321 646.328C722.282 646.328 761.305 608.866 761.305 562.824C761.305 516.774 722.282 479.312 674.321 479.312C626.36 479.312 587.337 516.774 587.337 562.824C587.337 608.866 626.36 646.328 674.321 646.328" fill="#ffffff" fill-rule="evenodd" opacity="1" stroke="none"/>
<path d="M249.148 713.053C162.858 713.053 92.6537 645.657 92.6537 562.818C92.6537 491.706 144.408 432.021 213.643 416.538C210.529 415.539 207.372 414.472 204.209 413.317C181.994 405.233 163.544 395.089 148.881 383.084C82.1656 417.462 36.7876 485.048 36.7876 562.818C36.7876 675.415 131.86 766.691 249.148 766.691C297.605 766.691 342.247 751.079 377.986 724.847L340.392 684.756C314.689 702.536 283.182 713.053 249.148 713.053" fill="#ffffff" fill-rule="evenodd" opacity="1" stroke="none"/>
<path d="M162.162 562.821C162.162 608.864 201.185 646.325 249.146 646.325C297.114 646.325 336.137 608.864 336.137 562.821C336.137 516.772 297.114 479.317 249.146 479.317C201.185 479.317 162.162 516.772 162.162 562.821" fill="#ffffff" fill-rule="evenodd" opacity="1" stroke="none"/>
<path d="M292.722 331.263C247.833 323.192 156.588 293.319 140.488 234.3C140.488 234.3 119.108 297.817 155.343 345.768C162.816 355.667 172.823 363.759 183.609 370.342C215.42 389.746 254.046 395.942 254.803 395.969C342.587 399.087 412.756 468.386 412.756 553.419C412.756 593.659 397.009 630.347 371.157 658.195C368.977 660.539 366.748 662.849 364.427 665.064L364.752 665.41L402.275 705.44L459.747 766.735L459.747 418.769C450.887 401.255 415.969 353.418 292.722 331.263" fill="#8c52ff" fill-rule="evenodd" opacity="1" stroke="none"/>
<path d="M822.03 352.138C818.478 313.053 807.07 270.543 780.085 232.857C763.985 291.876 672.74 321.742 627.851 329.813C497.428 353.266 465.907 405.485 459.509 420.078C459.163 419.276 458.717 418.339 458.2 417.32L458.2 765.292L459.509 766.692L519.7 702.489L556.139 663.621C526.295 635.086 507.817 595.606 507.817 551.976C507.817 502.985 531.115 459.218 567.646 430.316C596.719 406.436 634.454 391.978 675.72 391.978C767.608 391.978 842.101 463.491 842.101 551.704C843.113 696.965 785.591 767.147 785.591 767.147C886.495 744.584 961.667 657.703 961.667 553.966C961.667 463.158 904.067 385.279 822.03 352.138" fill="#8c52ff" fill-rule="evenodd" opacity="1" stroke="none"/>
</g>
</g>
</svg>
