<?xml version="1.0" encoding="UTF-8" standalone="no"?>
<!DOCTYPE svg PUBLIC "-//W3C//DTD SVG 1.1//EN" "http://www.w3.org/Graphics/SVG/1.1/DTD/svg11.dtd">
<!-- Created with Vectornator (http://vectornator.io/) -->
<svg height="100%" stroke-miterlimit="10" style="fill-rule:nonzero;clip-rule:evenodd;stroke-linecap:round;stroke-linejoin:round;" version="1.1" viewBox="0 0 1000 1000" width="100%" xml:space="preserve" xmlns="http://www.w3.org/2000/svg" xmlns:vectornator="http://vectornator.io" xmlns:xlink="http://www.w3.org/1999/xlink">
<defs/>
<clipPath id="ArtboardFrame">
<rect height="1000" width="1000" x="0" y="0"/>
</clipPath>
<g clip-path="url(#ArtboardFrame)" id="Layer-1" vectornator:layerName="Layer 1">
<path d="M-162.275-91.4548L1467.96-91.4548L1467.96 1370.07L-162.275 1370.07L-162.275-91.4548Z" fill="#170a30" fill-rule="evenodd" opacity="1" stroke="none"/>
</g>
<g id="Untitled" vectornator:layerName="Untitled">
<g opacity="1">
<path d="M655.751 689.728C624.758 689.728 596.11 679.954 572.941 663.46L572.104 664.354L539.536 699.092C571.606 723.122 611.918 737.482 655.751 737.482C681.256 737.482 705.57 732.601 727.773 723.812L732.196 719.016C738.289 712.41 745.793 693.896 750.273 682.839L752.119 678.302C757.537 665.068 761.734 651.713 764.991 638.842C739.455 669.805 699.994 689.728 655.751 689.728" fill="#ffffff" fill-rule="evenodd" opacity="1" stroke="none"/>
<path d="M655.751 630.324C698.45 630.324 733.192 596.972 733.192 555.981C733.192 514.983 698.45 481.631 655.751 481.631C613.052 481.631 578.31 514.983 578.31 555.981C578.31 596.972 613.052 630.324 655.751 630.324" fill="#ffffff" fill-rule="evenodd" opacity="1" stroke="none"/>
<path d="M277.223 689.728C200.399 689.728 137.897 629.726 137.897 555.975C137.897 492.665 183.973 439.528 245.613 425.743C242.841 424.854 240.03 423.904 237.214 422.876C217.436 415.679 201.01 406.647 187.956 395.96C128.56 426.566 88.1598 486.737 88.1598 555.975C88.1598 656.22 172.802 737.482 277.223 737.482C320.364 737.482 360.108 723.583 391.926 700.229L358.457 664.536C335.573 680.365 307.523 689.728 277.223 689.728" fill="#ffffff" fill-rule="evenodd" opacity="1" stroke="none"/>
<path d="M199.78 555.978C199.78 596.97 234.522 630.321 277.221 630.321C319.927 630.321 354.668 596.97 354.668 555.978C354.668 514.981 319.927 481.635 277.221 481.635C234.522 481.635 199.78 514.981 199.78 555.978" fill="#ffffff" fill-rule="evenodd" opacity="1" stroke="none"/>
<path d="M316.016 349.824C276.052 342.638 194.817 316.042 180.484 263.498C180.484 263.498 161.449 320.047 193.709 362.737C200.362 371.55 209.271 378.755 218.874 384.615C247.195 401.891 281.583 407.407 282.257 407.431C360.411 410.207 422.882 471.903 422.882 547.608C422.882 583.433 408.862 616.096 385.846 640.889C383.906 642.976 381.921 645.032 379.855 647.004L380.144 647.312L413.551 682.951L464.717 737.521L464.717 427.73C456.829 412.137 425.742 369.548 316.016 349.824" fill="#8c52ff" fill-rule="evenodd" opacity="1" stroke="none"/>
<path d="M787.522 368.358C784.36 333.561 774.204 295.714 750.179 262.163C735.845 314.707 654.611 341.296 614.646 348.482C498.532 369.362 470.469 415.852 464.773 428.844C464.465 428.13 464.068 427.296 463.607 426.389L463.607 736.186L464.773 737.432L518.36 680.273L550.802 645.669C524.232 620.264 507.781 585.116 507.781 546.272C507.781 502.656 528.523 463.69 561.046 437.959C586.93 416.699 620.525 403.827 657.264 403.827C739.071 403.827 805.391 467.495 805.391 546.03C806.292 675.355 755.081 737.837 755.081 737.837C844.915 717.75 911.84 640.4 911.84 548.044C911.84 467.198 860.559 397.863 787.522 368.358" fill="#8c52ff" fill-rule="evenodd" opacity="1" stroke="none"/>
</g>
</g>
</svg>
