<?xml version="1.0" encoding="UTF-8" standalone="no"?>
<!DOCTYPE svg PUBLIC "-//W3C//DTD SVG 1.1//EN" "http://www.w3.org/Graphics/SVG/1.1/DTD/svg11.dtd">
<!-- Created with Vectornator (http://vectornator.io/) -->
<svg height="100%" stroke-miterlimit="10" style="fill-rule:nonzero;clip-rule:evenodd;stroke-linecap:round;stroke-linejoin:round;" version="1.1" viewBox="0 0 1000 1000" width="100%" xml:space="preserve" xmlns="http://www.w3.org/2000/svg" xmlns:vectornator="http://vectornator.io" xmlns:xlink="http://www.w3.org/1999/xlink">
<defs/>
<g id="Layer-1" vectornator:layerName="Layer 1">
<g opacity="1">
<path d="M673.912 710.663C639.489 710.663 607.672 699.807 581.942 681.489L581.011 682.482L544.84 721.064C580.459 747.754 625.229 763.701 673.912 763.701C702.238 763.701 729.243 758.281 753.902 748.52L758.815 743.192C765.582 735.856 773.916 715.292 778.891 703.012L780.94 697.975C786.96 683.277 791.622 668.443 795.237 654.149C766.876 688.535 723.051 710.663 673.912 710.663" fill="#ffffff" fill-rule="evenodd" opacity="1" stroke="none"/>
<path d="M673.912 644.687C721.335 644.687 759.923 607.645 759.923 562.119C759.923 516.586 721.335 479.545 673.912 479.545C626.49 479.545 587.904 516.586 587.904 562.119C587.904 607.645 626.49 644.687 673.912 644.687" fill="#ffffff" fill-rule="evenodd" opacity="1" stroke="none"/>
<path d="M251.978 710.663C166.657 710.663 97.24 644.023 97.24 562.113C97.24 491.799 148.412 432.781 216.871 417.474C213.792 416.486 210.672 415.432 207.543 414.287C185.577 406.296 167.334 396.265 152.837 384.396C86.8688 418.388 42 485.216 42 562.113C42 673.446 136.005 763.701 251.978 763.701C299.892 763.701 344.032 748.263 379.373 722.327L342.2 682.685C316.786 700.265 285.631 710.663 251.978 710.663" fill="#ffffff" fill-rule="evenodd" opacity="1" stroke="none"/>
<path d="M165.967 562.116C165.967 607.642 204.554 644.685 251.978 644.685C299.407 644.685 337.992 607.642 337.992 562.116C337.992 516.583 299.407 479.547 251.978 479.547C204.554 479.547 165.967 516.583 165.967 562.116" fill="#ffffff" fill-rule="evenodd" opacity="1" stroke="none"/>
<path d="M295.064 331.725C250.677 323.744 160.455 294.206 144.536 235.848C144.536 235.848 123.397 298.653 159.225 346.066C166.614 355.853 176.508 363.857 187.176 370.364C218.629 389.551 256.821 395.679 257.57 395.703C344.371 398.787 413.751 467.309 413.751 551.39C413.751 591.177 398.183 627.453 372.619 654.992C370.464 657.307 368.26 659.592 365.964 661.781L366.285 662.123L403.387 701.707L460.215 762.315L460.215 418.249C451.456 400.932 416.928 353.631 295.064 331.725M819.966 353.795C816.453 315.15 805.174 273.116 778.491 235.852C762.572 294.209 672.35 323.741 627.963 331.722C499.003 354.911 467.836 406.544 461.509 420.974C461.166 420.181 460.726 419.256 460.215 418.246L460.215 762.316L461.509 763.704L521.026 700.217L557.055 661.787C527.544 633.57 509.273 594.534 509.273 551.393C509.273 502.951 532.312 459.675 568.432 431.097C597.181 407.483 634.493 393.188 675.294 393.188C766.154 393.188 839.81 463.901 839.81 551.125C840.811 694.756 783.934 764.152 783.934 764.152C883.708 741.841 958.036 655.934 958.036 553.36C958.036 463.572 901.083 386.565 819.966 353.795" fill="#8c52ff" fill-rule="evenodd" opacity="1" stroke="none"/>
</g>
</g>
</svg>
