<?xml version="1.0" encoding="UTF-8" standalone="no"?>
<!DOCTYPE svg PUBLIC "-//W3C//DTD SVG 1.1//EN" "http://www.w3.org/Graphics/SVG/1.1/DTD/svg11.dtd">
<!-- Created with Vectornator (http://vectornator.io/) -->
<svg height="100%" stroke-miterlimit="10" style="fill-rule:nonzero;clip-rule:evenodd;stroke-linecap:round;stroke-linejoin:round;" version="1.1" viewBox="0 0 1000 1000" width="100%" xml:space="preserve" xmlns="http://www.w3.org/2000/svg" xmlns:vectornator="http://vectornator.io" xmlns:xlink="http://www.w3.org/1999/xlink">
<defs/>
<g id="Layer-1" vectornator:layerName="Layer 1">
<g opacity="1">
<path d="M674.912 710.663C640.489 710.663 608.672 699.807 582.942 681.489L582.011 682.482L545.84 721.064C581.459 747.754 626.229 763.701 674.912 763.701C703.238 763.701 730.243 758.281 754.902 748.52L759.815 743.192C766.582 735.856 774.916 715.292 779.891 703.012L781.94 697.975C787.96 683.277 792.622 668.443 796.237 654.149C767.876 688.535 724.051 710.663 674.912 710.663" fill="#ffffff" fill-rule="evenodd" opacity="1" stroke="none"/>
<path d="M674.912 644.687C722.335 644.687 760.923 607.645 760.923 562.119C760.923 516.586 722.335 479.545 674.912 479.545C627.49 479.545 588.904 516.586 588.904 562.119C588.904 607.645 627.49 644.687 674.912 644.687" fill="#ffffff" fill-rule="evenodd" opacity="1" stroke="none"/>
<path d="M252.978 710.663C167.657 710.663 98.24 644.023 98.24 562.113C98.24 491.799 149.412 432.781 217.871 417.474C214.792 416.486 211.672 415.432 208.543 414.287C186.577 406.296 168.334 396.265 153.837 384.396C87.8688 418.388 43 485.216 43 562.113C43 673.446 137.005 763.701 252.978 763.701C300.892 763.701 345.032 748.263 380.373 722.327L343.2 682.685C317.786 700.265 286.631 710.663 252.978 710.663" fill="#ffffff" fill-rule="evenodd" opacity="1" stroke="none"/>
<path d="M166.967 562.116C166.967 607.642 205.554 644.685 252.978 644.685C300.407 644.685 338.992 607.642 338.992 562.116C338.992 516.583 300.407 479.547 252.978 479.547C205.554 479.547 166.967 516.583 166.967 562.116" fill="#ffffff" fill-rule="evenodd" opacity="1" stroke="none"/>
<path d="M296.064 331.725C251.677 323.744 161.455 294.206 145.536 235.848C145.536 235.848 124.397 298.653 160.225 346.066C167.614 355.853 177.508 363.857 188.176 370.364C219.629 389.551 257.821 395.679 258.57 395.703C345.371 398.787 414.751 467.309 414.751 551.39C414.751 591.177 399.183 627.453 373.619 654.992C371.464 657.307 369.26 659.592 366.964 661.781L367.285 662.123L404.387 701.707L461.215 762.315L461.215 418.249C452.456 400.932 417.928 353.631 296.064 331.725M820.966 353.795C817.453 315.15 806.174 273.116 779.491 235.852C763.572 294.209 673.35 323.741 628.963 331.722C500.003 354.911 468.836 406.544 462.509 420.974C462.166 420.181 461.726 419.256 461.215 418.246L461.215 762.316L462.509 763.704L522.026 700.217L558.055 661.787C528.544 633.57 510.273 594.534 510.273 551.393C510.273 502.951 533.312 459.675 569.432 431.097C598.181 407.483 635.493 393.188 676.294 393.188C767.154 393.188 840.81 463.901 840.81 551.125C841.811 694.756 784.934 764.152 784.934 764.152C884.708 741.841 959.036 655.934 959.036 553.36C959.036 463.572 902.083 386.565 820.966 353.795" fill="#8c52ff" fill-rule="evenodd" opacity="1" stroke="none"/>
</g>
</g>
</svg>
