<?xml version="1.0" encoding="UTF-8" standalone="no"?>
<!DOCTYPE svg PUBLIC "-//W3C//DTD SVG 1.1//EN" "http://www.w3.org/Graphics/SVG/1.1/DTD/svg11.dtd">
<!-- Created with Vectornator (http://vectornator.io/) -->
<svg height="100%" stroke-miterlimit="10" style="fill-rule:nonzero;clip-rule:evenodd;stroke-linecap:round;stroke-linejoin:round;" version="1.1" viewBox="0 0 1000 1000" width="100%" xml:space="preserve" xmlns="http://www.w3.org/2000/svg" xmlns:vectornator="http://vectornator.io" xmlns:xlink="http://www.w3.org/1999/xlink">
<defs/>
<g id="Untitled" vectornator:layerName="Untitled">
<g opacity="1">
<path d="M675.866 713.053C641.054 713.053 608.875 702.074 582.852 683.547L581.911 684.552L545.33 723.57C581.352 750.562 626.631 766.691 675.866 766.691C704.514 766.691 731.824 761.209 756.763 751.337L761.731 745.949C768.575 738.53 777.004 717.734 782.035 705.315L784.109 700.219C790.195 685.354 794.909 670.353 798.567 655.896C769.884 690.674 725.561 713.053 675.866 713.053" fill="#ffffff" fill-opacity="0" fill-rule="evenodd" opacity="1" stroke="#ffffff" stroke-linecap="butt" stroke-linejoin="round" stroke-width="15"/>
<path d="M675.866 646.328C723.827 646.328 762.85 608.866 762.85 562.824C762.85 516.774 723.827 479.312 675.866 479.312C627.905 479.312 588.882 516.774 588.882 562.824C588.882 608.866 627.905 646.328 675.866 646.328" fill="#ffffff" fill-opacity="0" fill-rule="evenodd" opacity="1" stroke="#ffffff" stroke-linecap="butt" stroke-linejoin="round" stroke-width="15"/>
<path d="M249.148 713.053C162.858 713.053 92.6537 645.657 92.6537 562.818C92.6537 491.706 144.408 432.021 213.643 416.538C210.529 415.539 207.372 414.472 204.209 413.317C181.994 405.233 163.544 395.089 148.881 383.084C82.1656 417.462 36.7876 485.048 36.7876 562.818C36.7876 675.415 131.86 766.691 249.148 766.691C297.605 766.691 342.247 751.079 377.986 724.847L340.392 684.756C314.689 702.536 283.182 713.053 249.148 713.053" fill="#ffffff" fill-opacity="0" fill-rule="evenodd" opacity="1" stroke="#ffffff" stroke-linecap="butt" stroke-linejoin="round" stroke-width="15"/>
<path d="M162.162 562.821C162.162 608.864 201.185 646.325 249.146 646.325C297.114 646.325 336.137 608.864 336.137 562.821C336.137 516.772 297.114 479.317 249.146 479.317C201.185 479.317 162.162 516.772 162.162 562.821" fill="#ffffff" fill-opacity="0" fill-rule="evenodd" opacity="1" stroke="#ffffff" stroke-linecap="butt" stroke-linejoin="round" stroke-width="15"/>
<path d="M292.722 329.816C247.833 321.745 156.588 291.872 140.488 232.853C140.488 232.853 119.108 296.37 155.343 344.321C162.816 354.22 172.823 362.312 183.609 368.895C215.42 388.299 254.046 394.495 254.803 394.522C342.587 397.64 412.756 466.939 412.756 551.972C412.756 592.212 397.009 628.9 371.157 656.748C368.977 659.092 366.748 661.402 364.427 663.617L364.752 663.963L402.275 703.993L459.747 765.288L459.747 417.322C450.887 399.808 415.969 351.971 292.722 329.816" fill="#ffffff" fill-rule="evenodd" opacity="1" stroke="#ffffff" stroke-linecap="butt" stroke-linejoin="round" stroke-width="15"/>
<path d="M823.575 352.138C820.023 313.053 808.615 270.543 781.63 232.857C765.53 291.876 674.285 321.742 629.396 329.813C498.973 353.266 467.452 405.485 461.054 420.078C460.708 419.276 460.262 418.339 459.745 417.32L459.745 765.292L461.054 766.692L521.245 702.489L557.684 663.621C527.84 635.086 509.362 595.606 509.362 551.976C509.362 502.985 532.66 459.218 569.191 430.316C598.264 406.436 635.999 391.978 677.265 391.978C769.153 391.978 843.646 463.491 843.646 551.704C844.658 696.965 787.136 767.147 787.136 767.147C888.04 744.584 963.212 657.703 963.212 553.966C963.212 463.158 905.612 385.279 823.575 352.138" fill="#ffffff" fill-rule="evenodd" opacity="1" stroke="#ffffff" stroke-linecap="butt" stroke-linejoin="round" stroke-width="15"/>
</g>
</g>
</svg>
